<svg width="77" height="77" viewBox="0 0 77 77" fill="none" xmlns="http://www.w3.org/2000/svg">
<path d="M38.4345 0C17.2064 0 0 17.2094 0 38.4338C0 59.665 17.2064 76.8736 38.4345 76.8736C59.665 76.8736 76.8745 59.665 76.8745 38.4338C76.8745 17.2094 59.665 0 38.4345 0ZM64.8544 56.1859C61.6897 56.1859 59.9709 55.1712 58.5934 54.3541C57.3773 53.6346 56.4165 53.0658 54.3172 53.0658C52.2179 53.0658 51.2571 53.6346 50.041 54.3541C48.6635 55.1712 46.9455 56.1859 43.78 56.1859C40.6145 56.1859 38.9011 55.1712 37.5267 54.3541C36.3137 53.6346 35.3551 53.0658 33.2582 53.0658C31.1635 53.0658 30.208 53.6346 28.9942 54.3541C27.6198 55.1712 25.9064 56.1859 22.744 56.1859C19.5816 56.1859 17.869 55.1712 16.4946 54.3541C15.2808 53.6346 13.283 53.1887 11.1898 53.1887L10.2282 49.0171C14.3038 48.7158 15.9949 50.0771 17.4423 50.7597C18.8198 51.4093 20.6509 52.2871 22.744 52.2871C24.8387 52.2871 25.7973 51.7206 27.0079 51.0011C28.3847 50.187 30.0958 49.1724 33.2582 49.1724C36.4205 49.1724 38.1332 50.187 39.5138 51.0011C40.7268 51.7206 41.6822 52.2871 43.78 52.2871C45.8816 52.2871 46.8424 51.7206 48.0562 51.0011C49.436 50.187 51.1487 49.1724 54.3172 49.1724C57.4857 49.1724 59.1984 50.184 60.5782 51.0011C61.792 51.7175 62.7528 52.2871 64.8544 52.2871V56.1859V56.1859ZM68.6886 37.4168C68.3135 38.3776 66.2834 43.3365 63.191 46.6203L61.3738 48.5505L58.9148 47.5735C58.1438 47.2645 56.0475 46.5911 54.8392 46.5911C53.0373 46.5911 51.3923 46.9885 49.9579 47.7695C49.7696 47.874 49.5875 47.9863 49.4045 48.1C48.2584 48.7972 46.5265 49.855 43.6808 49.855C40.8405 49.855 39.1117 48.7972 37.9679 48.1C37.7827 47.987 37.602 47.874 37.4091 47.7695C36.1577 47.0846 35.2498 46.5911 33.1567 46.5911C31.0651 46.5911 30.1603 47.0854 28.9043 47.7718C28.716 47.8794 28.5338 47.9917 28.3509 48.1023C27.207 48.8003 25.4782 49.855 22.6433 49.855C19.8053 49.855 18.0765 48.8003 16.9327 48.1023C16.7498 47.9917 16.5699 47.8794 16.3762 47.7718C15.2032 47.133 14.3576 46.668 12.4781 46.6172L9.42565 46.5319L8.77843 43.5463L7.75301 38.8104L7.0973 35.7772L9.90534 34.4612L13.5597 32.7439L15.1893 28.48L15.2185 28.4046L15.2508 28.3293C16.0641 26.4445 16.6867 25.8618 16.9658 25.6066C18.1173 24.5381 19.6669 24.0531 20.3272 23.8832L44.6132 17.9343L44.9115 17.859L45.2251 17.8375C45.2251 17.8375 46.5035 17.7352 47.3844 17.7352C47.7764 17.7352 48.1223 17.7544 48.3937 17.789C50.6329 18.0873 51.8897 19.4717 52.3509 20.1089L58.6811 28.4154L66.4425 27.8735L72.5882 27.4438L70.3436 33.1782L68.6886 37.4168Z" fill="white"/>
<path d="M47.662 22.8002C47.662 22.8002 47.2323 22.1445 46.3198 22.0238C46.1961 22.0108 46.0239 22 45.8256 22C45.0731 22 43.9838 22.0915 43.9838 22.0915L19.6978 28.0381C19.6978 28.0381 18.6132 28.3194 18.0543 28.8352C17.7591 29.1112 17.2703 30.2419 17.2703 30.2419L15.0795 35.9733L10 38.3577L11.0254 43.0936C13.845 43.172 15.3324 43.9845 16.6845 44.7256C17.9306 45.4051 18.9129 46.3344 21.083 46.3344C23.2514 46.3344 24.2323 45.4051 25.4753 44.7256C26.8981 43.9469 28.5085 43.0667 31.5963 43.0667C34.6888 43.0667 36.3 43.9477 37.7228 44.7233C38.9689 45.4051 39.9505 46.3344 42.1205 46.3344C44.2951 46.3344 45.2829 45.4051 46.5289 44.7233C47.9518 43.9469 50.1856 43.0667 53.278 43.0667C55.6348 43.0667 58.7926 44.3205 58.7926 44.3205C61.0503 41.926 62.8298 38.0818 63.4985 36.3714C63.9144 35.3053 65.1551 32.1321 65.1551 32.1321L55.2966 32.8216L47.662 22.8002Z" fill="white"/>
</svg>
