<svg width="78" height="78" viewBox="0 0 78 78" fill="none" xmlns="http://www.w3.org/2000/svg">
<g clip-path="url(#clip0_27_51)">
<g clip-path="url(#clip1_27_51)">
<path d="M49.9962 22.8412C49.9962 22.8412 49.5664 22.1855 48.654 22.0649C48.5302 22.0518 48.3581 22.041 48.1598 22.041C47.4072 22.041 46.3179 22.1325 46.3179 22.1325L22.0319 28.0791C22.0319 28.0791 20.9473 28.3604 20.3885 28.8762C20.0933 29.1522 19.6044 30.2829 19.6044 30.2829L17.4137 36.0143L12.3342 38.3988L13.3596 43.1347C16.1791 43.2131 17.6666 44.0256 19.0187 44.7666C20.2647 45.4461 21.2471 46.3755 23.4171 46.3755C25.5856 46.3755 26.5665 45.4461 27.8095 44.7666C29.2323 43.9879 30.8427 43.1078 33.9305 43.1078C37.0229 43.1078 38.6341 43.9887 40.057 44.7643C41.303 45.4461 42.2847 46.3755 44.4547 46.3755C46.6293 46.3755 47.6171 45.4461 48.8631 44.7643C50.286 43.9879 52.5197 43.1078 55.6122 43.1078C57.969 43.1078 61.1268 44.3615 61.1268 44.3615C63.3844 41.967 65.1639 38.1228 65.8327 36.4125C66.2486 35.3463 67.4893 32.1731 67.4893 32.1731L57.6308 32.8626L49.9962 22.8412Z" fill="white"/>
<path d="M39.2083 0.413147C17.9802 0.413147 0.773804 17.6226 0.773804 38.8469C0.773804 60.0781 17.9802 77.2868 39.2083 77.2868C60.4388 77.2868 77.6483 60.0781 77.6483 38.8469C77.6483 17.6226 60.4388 0.413147 39.2083 0.413147ZM65.6282 56.5991C62.4635 56.5991 60.7447 55.5844 59.3672 54.7673C58.1512 54.0478 57.1903 53.4789 55.091 53.4789C52.9917 53.4789 52.0309 54.0478 50.8148 54.7673C49.4373 55.5844 47.7193 56.5991 44.5538 56.5991C41.3883 56.5991 39.6749 55.5844 38.3005 54.7673C37.0875 54.0478 36.1289 53.4789 34.032 53.4789C31.9373 53.4789 30.9818 54.0478 29.768 54.7673C28.3936 55.5844 26.6802 56.5991 23.5178 56.5991C20.3554 56.5991 18.6428 55.5844 17.2684 54.7673C16.0546 54.0478 14.0568 53.6019 11.9636 53.6019L11.002 49.4302C15.0776 49.1289 16.7687 50.4903 18.2161 51.1729C19.5936 51.8224 21.4247 52.7002 23.5178 52.7002C25.6125 52.7002 26.5711 52.1337 27.7818 51.4142C29.1585 50.6002 30.8696 49.5855 34.032 49.5855C37.1944 49.5855 38.907 50.6002 40.2876 51.4142C41.5006 52.1337 42.456 52.7002 44.5538 52.7002C46.6554 52.7002 47.6162 52.1337 48.83 51.4142C50.2098 50.6002 51.9225 49.5855 55.091 49.5855C58.2595 49.5855 59.9722 50.5971 61.352 51.4142C62.5658 52.1306 63.5266 52.7002 65.6282 52.7002V56.5991V56.5991ZM69.4624 37.8299C69.0873 38.7908 67.0572 43.7496 63.9648 47.0334L62.1476 48.9636L59.6886 47.9866C58.9176 47.6776 56.8213 47.0042 55.613 47.0042C53.8111 47.0042 52.1661 47.4016 50.7317 48.1826C50.5434 48.2872 50.3613 48.3994 50.1783 48.5132C49.0322 49.2104 47.3003 50.2681 44.4547 50.2681C41.6143 50.2681 39.8856 49.2104 38.7417 48.5132C38.5565 48.4002 38.3759 48.2872 38.1829 48.1826C36.9315 47.4977 36.0236 47.0042 33.9305 47.0042C31.8389 47.0042 30.9341 47.4985 29.6781 48.185C29.4898 48.2926 29.3076 48.4048 29.1247 48.5155C27.9809 49.2135 26.252 50.2681 23.4171 50.2681C20.5791 50.2681 18.8503 49.2135 17.7065 48.5155C17.5236 48.4048 17.3437 48.2926 17.15 48.185C15.977 47.5462 15.1314 47.0811 13.2519 47.0304L10.1995 46.9451L9.55224 43.9595L8.52682 39.2236L7.8711 36.1903L10.6791 34.8743L14.3335 33.157L15.9631 28.8931L15.9923 28.8178L16.0246 28.7425C16.8379 26.8576 17.4605 26.275 17.7396 26.0198C18.8911 24.9513 20.4407 24.4662 21.101 24.2964L45.387 18.3475L45.6853 18.2721L45.9989 18.2506C45.9989 18.2506 47.2773 18.1484 48.1582 18.1484C48.5502 18.1484 48.8961 18.1676 49.1675 18.2022C51.4067 18.5004 52.6635 19.8848 53.1247 20.5221L59.4549 28.8286L67.2163 28.2866L73.362 27.8569L71.1174 33.5914L69.4624 37.8299Z" fill="white"/>
</g>
</g>
<defs>
<clipPath id="clip0_27_51">
<rect width="76.8744" height="76.8737" fill="white" transform="translate(0.773804 0.413147)"/>
</clipPath>
<clipPath id="clip1_27_51">
<rect width="76.8744" height="76.8737" fill="white" transform="translate(0.773804 0.413147)"/>
</clipPath>
</defs>
</svg>
